<svg version="1.1" id="Layer_1" xmlns="http://www.w3.org/2000/svg" xmlns:xlink="http://www.w3.org/1999/xlink" x="0px" y="0px"
	 width="100" height="100" viewBox="0 0 1438 1438" enable-background="new 0 0 1438 1438" xml:space="preserve">
<path fill="none" opacity="1.000000" stroke="none" 
	d="
M937.000000,1439.000000 
	C624.666748,1439.000000 312.833435,1439.000000 1.000126,1439.000000 
	C1.000084,959.666809 1.000084,480.333618 1.000042,1.000319 
	C480.333099,1.000212 959.666199,1.000212 1438.999512,1.000106 
	C1438.999634,480.333008 1438.999634,959.666016 1438.999756,1438.999512 
	C1271.833374,1439.000000 1104.666626,1439.000000 937.000000,1439.000000 
M179.731354,824.145447 
	C180.096420,824.241943 180.461487,824.338501 180.826523,824.435059 
	C180.577423,823.933716 180.328323,823.432434 179.994110,822.198914 
	C176.168396,814.473633 172.439209,806.698486 168.486145,799.038879 
	C165.375397,793.011353 161.988495,787.126282 158.841934,780.455383 
	C153.596756,770.287537 148.351578,760.119690 142.999329,749.219055 
	C137.932892,739.209900 132.866440,729.200684 127.862282,718.462097 
	C122.611359,708.292480 117.360435,698.122925 111.997818,687.220215 
	C106.701637,677.131287 101.405464,667.042297 95.997360,656.219849 
	C90.702568,646.131409 85.407784,636.042969 79.999359,625.221130 
	C77.669891,620.832214 75.021202,616.579102 73.082817,612.023804 
	C69.854141,604.436340 67.080597,596.655212 64.007538,588.113892 
	C63.878551,586.815979 63.788845,585.512756 63.614227,584.221008 
	C62.418457,575.375305 60.345409,566.541870 60.243324,557.685059 
	C60.144939,549.148987 62.076374,540.589539 63.767403,531.700562 
	C67.861214,525.171021 71.955025,518.641479 76.672066,511.847015 
	C82.131645,507.601257 87.591225,503.355499 93.729057,498.798126 
	C99.484833,496.809875 105.240616,494.821655 111.921783,492.980682 
	C117.279831,492.931366 122.637886,492.882019 128.834122,492.980957 
	C134.542374,493.692474 140.250610,494.404022 146.395401,495.803650 
	C153.596405,497.147125 160.797409,498.490601 168.814529,499.977936 
	C175.527512,501.355438 182.240509,502.732941 189.361542,504.778961 
	C196.242874,506.463806 203.124207,508.148651 210.797897,509.973419 
	C212.474243,510.445862 214.214752,510.762115 215.815201,511.419373 
	C221.140900,513.606506 226.105453,514.192627 230.684387,508.769379 
	C241.810989,498.735718 252.937607,488.702026 264.970642,477.850952 
	C252.424042,474.734344 241.223328,471.952057 229.235443,469.004547 
	C222.826096,467.391907 216.416763,465.779297 209.202179,464.020477 
	C202.814728,462.641022 196.427277,461.261566 189.630417,459.214172 
	C182.433685,457.769867 175.236938,456.325592 167.601547,454.197937 
	C160.732773,453.520996 153.863983,452.844025 146.167465,452.000671 
	C140.110062,451.389496 134.052643,450.778351 127.248009,449.777618 
	C121.830521,449.907318 116.413040,450.037048 110.139305,450.027283 
	C104.426636,451.073181 98.713966,452.119110 92.188103,453.025665 
	C86.459282,454.738556 80.730453,456.451447 74.284172,458.244049 
	C69.854614,460.551544 65.425064,462.859070 60.299191,465.225403 
	C55.851559,468.446106 51.403931,471.666779 46.337002,475.157562 
	C41.187916,481.423004 36.038826,487.688416 30.252703,494.232880 
	C17.742788,513.265564 11.204241,534.192810 11.099030,556.942627 
	C11.063627,564.597473 12.051063,572.293152 13.039353,579.909424 
	C15.371458,597.881653 21.878082,614.426758 30.988817,630.773376 
	C31.976269,632.406128 32.906940,634.076538 33.961086,635.665039 
	C38.271175,642.159790 42.618999,648.629456 46.999031,655.821289 
	C51.984970,662.586609 56.970905,669.351868 61.997475,676.823547 
	C66.960861,683.231689 71.924248,689.639893 76.989166,696.756287 
	C82.644386,703.874573 88.299614,710.992920 94.001221,718.816833 
	C99.220230,725.509888 104.439240,732.203003 109.977112,739.430847 
	C115.306030,745.994507 120.634956,752.558167 126.227570,759.739136 
	C131.137115,765.529907 136.046661,771.320679 141.226532,777.740234 
	C146.469101,784.196167 151.711670,790.652100 157.221603,797.726379 
	C158.153336,798.848083 159.071869,799.981079 160.018875,801.089783 
	C166.462814,808.634094 172.912750,816.173279 179.731354,824.145447 
M278.785828,665.274475 
	C276.536102,663.475586 274.286377,661.676758 271.750427,659.243347 
	C268.830353,657.884460 265.910309,656.525635 262.282867,654.802002 
	C260.221191,654.516174 258.159485,654.230286 255.668060,653.251404 
	C253.098053,653.462524 250.528046,653.673645 247.188385,653.986572 
	C245.777206,654.288818 244.366013,654.591125 242.187805,654.991028 
	C240.120178,655.716797 238.052551,656.442566 235.298050,657.237122 
	C232.847092,659.128723 230.396133,661.020325 227.326630,663.182800 
	C218.116043,671.265930 214.828522,681.713257 216.086594,693.511108 
	C217.009338,702.164551 220.621262,709.752991 228.195587,715.721985 
	C230.792053,717.425232 233.388519,719.128479 236.636246,721.138916 
	C238.752701,722.036499 240.869156,722.934143 243.729126,723.990723 
	C245.153702,724.272095 246.578278,724.553467 248.868027,724.979736 
	C250.911102,724.930908 252.954178,724.882019 255.773712,724.974915 
	C258.179199,724.261047 260.584686,723.547119 263.718262,722.962280 
	C266.474121,721.586365 269.230011,720.210449 272.650452,718.794617 
	C274.781311,716.567322 276.912170,714.340027 279.681519,711.815674 
	C280.527527,710.628784 281.433533,709.479858 282.210358,708.249268 
	C290.609955,694.943298 289.476288,677.622131 278.785828,665.274475 
M16.024857,784.830566 
	C15.404995,789.218628 14.785132,793.606750 13.791183,798.734558 
	C13.250060,803.160706 12.708937,807.586914 12.026693,812.861816 
	C11.740497,818.246155 11.454299,823.630432 11.030198,829.932312 
	C11.408149,835.621155 11.786098,841.309998 12.026073,847.827332 
	C13.071819,852.551086 14.117566,857.274841 15.026311,862.802429 
	C16.644115,867.548645 18.261923,872.294922 19.995363,877.802490 
	C20.101152,878.442017 20.080673,879.136353 20.331173,879.713013 
	C27.230066,895.595642 37.206059,909.119873 51.103588,919.598022 
	C68.613159,932.799438 88.481712,940.279968 110.190697,941.757568 
	C120.925842,942.488220 131.874664,941.053162 142.655441,939.919495 
	C160.300964,938.063721 176.586716,931.323975 191.578583,922.500244 
	C218.561584,906.618774 243.461029,887.588257 268.152618,868.355530 
	C280.087219,859.059448 292.146271,849.919617 303.960785,840.473633 
	C315.438110,831.297119 326.647705,821.786560 338.025635,812.484863 
	C346.609589,805.467224 355.346100,798.635010 363.879425,791.557129 
	C370.931061,785.708191 377.784729,779.620544 385.168640,773.251648 
	C385.321014,772.912170 385.473419,772.572693 385.625763,772.233154 
	C385.058960,772.461975 384.492126,772.690796 383.188080,773.000671 
	C369.690216,779.907166 356.220459,786.869263 342.688782,793.708862 
	C312.082642,809.178955 281.432709,824.562256 250.827164,840.033447 
	C234.949585,848.059570 219.142868,856.225708 203.277496,864.276184 
	C190.457291,870.781494 177.776260,877.601990 164.699539,883.548279 
	C153.767181,888.519470 141.969849,890.588501 130.018768,892.161072 
	C118.434319,893.685303 107.018791,893.575806 95.949562,890.311951 
	C80.228714,885.676270 69.824722,874.184692 61.013264,860.203430 
	C59.287998,855.801147 57.562733,851.398804 55.973209,846.174500 
	C55.261089,841.448486 54.548965,836.722412 53.988045,831.126404 
	C54.602985,825.087585 55.217922,819.048828 55.985962,812.181824 
	C56.934845,806.457458 57.883728,800.733032 59.000656,794.211609 
	C59.945316,789.472900 60.889980,784.734192 62.196743,779.291260 
	C63.076046,775.192200 63.955349,771.093140 65.193176,766.293152 
	C66.406563,761.862427 67.619942,757.431641 68.978561,752.197449 
	C69.930077,747.798462 70.881599,743.399536 72.179047,738.308594 
	C72.793106,736.330505 73.207123,734.260315 74.066132,732.395020 
	C75.506264,729.267883 75.433167,726.734314 71.830482,724.333191 
	C68.164352,720.216492 64.498215,716.099731 60.772770,711.321167 
	C53.729946,703.567871 46.687126,695.814636 39.344166,687.730957 
	C39.009827,689.609070 38.873596,690.739075 38.603317,691.835999 
	C36.047066,702.210632 33.467999,712.579590 30.223003,723.353699 
	C28.871000,729.569031 27.518999,735.784424 25.810371,742.704651 
	C24.595858,747.802124 23.381344,752.899658 22.005568,758.783936 
	C21.059364,762.857117 20.113161,766.930359 19.004881,771.798340 
	C18.058578,775.864990 17.112276,779.931580 16.024857,784.830566 
M176.189865,574.014526 
	C159.678162,587.612610 143.166443,601.210693 126.654716,614.808777 
	C126.957520,615.172485 127.260323,615.536194 127.563126,615.899841 
	C144.387772,607.305542 161.212418,598.711182 178.763718,590.013000 
	C189.406799,584.560120 200.049881,579.107239 211.254852,573.223145 
	C219.184723,569.186157 227.114578,565.149231 235.780121,561.010193 
	C242.519348,557.618225 249.258591,554.226257 256.705658,550.769226 
	C261.816956,547.885376 266.928253,545.001587 272.773926,542.007263 
	C277.861450,539.377380 282.948944,536.747559 288.770416,534.003662 
	C293.859955,531.373901 298.949493,528.744141 304.771362,526.005493 
	C309.527496,523.376282 314.283661,520.747131 319.772400,518.005615 
	C325.195679,515.041992 330.618958,512.078369 336.777649,509.003998 
	C341.865021,506.708221 346.952393,504.412445 352.829376,502.015076 
	C357.549316,500.621124 362.269226,499.227203 367.817139,497.973267 
	C372.878357,496.926514 377.939545,495.879761 383.924866,494.975006 
	C388.949127,494.927826 393.973389,494.880646 399.892548,494.974854 
	C404.927734,495.594513 409.962921,496.214172 415.678802,497.167450 
	C420.771454,499.482635 425.864105,501.797821 431.232422,504.735687 
	C436.807159,510.195007 442.381927,515.654358 448.241730,521.753845 
	C450.172943,525.473145 452.388062,529.075012 453.984650,532.932800 
	C459.869171,547.151672 459.016357,561.797607 455.987823,576.418213 
	C451.086426,600.080627 446.365021,623.796326 440.638702,647.262817 
	C438.792419,654.828796 436.887360,660.671814 443.799713,666.922791 
	C451.175781,673.593079 457.290771,681.657898 464.227264,689.733215 
	C466.933594,692.833069 469.639923,695.932922 472.929352,699.700623 
	C473.701752,696.972717 474.175812,695.472900 474.549927,693.948547 
	C476.750000,684.984009 478.926727,676.013794 481.784149,666.642334 
	C486.055054,648.371399 490.801208,630.194885 494.452911,611.801025 
	C497.615112,595.872681 500.549438,579.770020 501.699493,563.610291 
	C502.704681,549.486328 500.698456,535.185608 496.685516,521.449036 
	C493.285797,509.811646 488.854431,498.556702 480.823395,488.308289 
	C475.549408,482.594330 470.275421,476.880371 464.374146,470.867950 
	C459.261963,467.538757 454.149811,464.209564 448.708862,460.253937 
	C443.139526,457.891571 437.570190,455.529236 431.319427,452.828094 
	C425.879089,451.274109 420.438782,449.720154 414.161957,448.020386 
	C409.107178,447.402435 404.052429,446.784485 398.073822,446.024017 
	C393.049438,446.071655 388.025024,446.119293 382.156738,446.025116 
	C377.101013,446.739105 372.045258,447.453094 366.230774,448.299561 
	C361.118500,449.849945 356.006195,451.400360 350.117126,452.995361 
	C345.043457,454.979553 339.969788,456.963776 334.166382,459.010925 
	C328.741730,461.990967 323.317078,464.971039 317.173767,468.009888 
	C312.433136,470.971954 307.692535,473.934021 302.312073,477.185699 
	C297.171417,480.776154 292.030762,484.366608 286.258698,488.229706 
	C281.136597,492.136963 276.014526,496.044220 270.187805,500.008728 
	C265.112488,503.965576 260.037201,507.922424 254.323074,512.167542 
	C247.514542,517.427490 240.706009,522.687378 233.274826,528.222656 
	C230.732117,530.167969 228.126175,532.036682 225.659286,534.073792 
	C219.701859,538.993408 213.809341,543.991516 207.186050,549.014038 
	C204.111420,551.346191 200.940918,553.563538 197.981247,556.033508 
	C190.898346,561.944519 183.914627,567.974365 176.189865,574.014526 
M453.012634,832.840271 
	C452.397400,837.455444 451.782196,842.070679 451.014618,847.420288 
	C449.638306,852.266235 448.261993,857.112122 446.265106,862.266602 
	C443.156616,866.478638 440.048126,870.690674 436.323364,875.168640 
	C432.529999,878.745483 428.736633,882.322388 424.220032,885.997253 
	C418.814545,888.387146 413.409088,890.777100 407.211090,893.317810 
	C403.370880,893.878601 399.536621,894.849243 395.689117,894.904907 
	C389.798340,894.990112 383.898438,894.444641 377.150024,894.026001 
	C370.148956,892.880554 363.129547,891.835693 356.151855,890.562073 
	C348.744965,889.210205 341.377686,887.641357 333.205414,886.005981 
	C332.295349,885.677063 331.405609,885.267761 330.472076,885.031494 
	C318.539368,882.010864 306.510529,879.321960 294.705566,875.867249 
	C289.739471,874.413940 286.097870,874.837646 282.336365,879.165405 
	C279.522614,881.759888 276.708893,884.354309 273.280884,887.216553 
	C270.149506,890.130493 267.018097,893.044434 263.267975,896.230225 
	C258.195251,900.569702 253.122513,904.909119 247.718323,909.532043 
	C251.015625,910.490234 253.599472,911.333740 256.229919,911.990662 
	C277.254181,917.241150 298.257141,922.582275 319.329956,927.631042 
	C330.484222,930.303467 341.764709,932.448853 353.851532,934.981445 
	C361.959320,935.971619 370.048798,937.172974 378.181396,937.876404 
	C383.437439,938.330933 388.756561,938.056580 394.966095,938.018433 
	C401.312347,937.290527 407.658630,936.562561 414.841217,935.978394 
	C421.225403,934.263184 427.609619,932.548035 434.741394,930.963318 
	C438.864594,928.990601 442.987793,927.017883 447.825378,924.990540 
	C451.900330,922.362122 455.975281,919.733704 460.682068,916.822754 
	C464.469238,913.586670 468.256409,910.350586 472.661316,906.796936 
	C475.455750,902.902405 478.250214,899.007874 481.684052,894.812195 
	C484.493622,889.556824 487.303192,884.301392 490.743286,878.707153 
	C492.534332,873.818970 494.325378,868.930725 496.787567,863.643555 
	C497.802887,859.238708 498.818176,854.833923 499.973694,849.632568 
	C500.352417,844.771973 500.731140,839.911377 501.834656,834.585083 
	C501.501556,829.055176 501.168457,823.525208 500.974670,817.128845 
	C500.651978,814.877441 500.294952,812.630310 500.011902,810.373901 
	C497.069427,786.917358 487.977905,765.760925 474.793549,746.473328 
	C460.152618,725.054993 444.846771,704.083191 429.510071,683.151794 
	C422.094391,673.030945 413.958801,663.436829 406.125000,653.623413 
	C397.776886,643.165771 389.397156,632.733459 381.037170,622.285339 
	C373.398224,612.738342 365.847687,603.119202 358.110596,593.652588 
	C350.045380,583.784546 341.803589,574.060852 333.251801,563.831543 
	C332.912292,563.679077 332.572815,563.526550 332.233307,563.374084 
	C332.462097,563.940979 332.690918,564.507812 333.002869,565.828979 
	C335.599518,571.348755 338.077179,576.928284 340.815582,582.376831 
	C348.490082,597.646667 356.284180,612.856384 364.009338,628.100769 
	C378.866272,657.418579 393.639648,686.779114 408.581055,716.053772 
	C418.218292,734.935974 428.319519,753.584290 437.755432,772.564819 
	C441.821808,780.744446 444.730957,789.499268 448.009552,798.803101 
	C449.061676,804.532898 450.113800,810.262756 451.314606,816.818481 
	C451.931915,821.876770 452.549225,826.934998 453.012634,832.840271 
M1013.000000,426.500000 
	C1013.000000,545.567383 1013.000000,664.634827 1013.000000,783.668640 
	C1047.656006,783.668640 1081.711426,783.668640 1116.306885,783.668640 
	C1116.306885,744.049683 1116.306885,704.759888 1116.306885,664.295044 
	C1128.296753,676.815491 1139.267700,688.617371 1150.611572,700.049072 
	C1177.605957,727.252075 1204.750977,754.305664 1231.946899,781.307190 
	C1233.386475,782.736511 1235.855591,783.881836 1237.849731,783.888733 
	C1280.173340,784.035461 1322.497437,784.002869 1364.821533,783.981384 
	C1365.859497,783.980835 1366.897217,783.708801 1368.554443,783.476624 
	C1316.310913,731.237366 1264.572998,679.503845 1212.962891,627.898010 
	C1260.230103,580.174500 1307.002563,532.950684 1354.191284,485.306396 
	C1352.862793,485.128754 1352.397949,485.012299 1351.933228,485.012207 
	C1308.776001,485.002441 1265.618774,484.963623 1222.462158,485.123566 
	C1220.511230,485.130768 1218.145508,486.517700 1216.681274,487.974060 
	C1184.546509,519.934631 1152.506836,551.991028 1120.477905,584.057922 
	C1119.242432,585.294922 1118.294434,586.818848 1117.212524,588.209106 
	C1116.788696,587.936584 1116.364990,587.664062 1115.941162,587.391479 
	C1115.941162,486.044800 1115.941162,384.698120 1115.941162,283.304199 
	C1081.398682,283.304199 1047.343506,283.304199 1013.000000,283.304199 
	C1013.000000,330.905212 1013.000000,378.202606 1013.000000,426.500000 
M719.513184,689.973206 
	C721.345886,687.291199 723.190857,684.617554 725.009277,681.925842 
	C738.659424,661.720459 752.349731,641.542053 765.938049,621.295227 
	C779.695129,600.796936 793.292236,580.191345 807.065552,559.704224 
	C819.948242,540.541992 832.999634,521.493286 845.912598,502.351379 
	C849.659363,496.797394 853.185486,491.094635 856.950500,485.246033 
	C757.615967,485.246033 659.010803,485.246033 560.283813,485.246033 
	C560.283813,511.552063 560.283813,537.611267 560.283813,564.101196 
	C600.952454,564.101196 641.339600,564.101196 682.644470,564.101196 
	C633.267639,637.592285 584.375549,710.362000 535.116028,783.678528 
	C639.252625,783.678528 741.999084,783.678528 844.640747,783.678528 
	C844.640747,756.962280 844.640747,730.569031 844.640747,703.845459 
	C799.722839,703.845459 755.163330,703.845459 710.135803,703.845459 
	C713.287537,699.100281 716.143005,694.801270 719.513184,689.973206 
M969.000000,562.500000 
	C969.000000,536.750793 969.000000,511.001617 969.000000,485.330017 
	C933.988708,485.330017 899.604858,485.330017 865.313110,485.330017 
	C865.313110,585.021423 865.313110,684.382507 865.313110,783.670044 
	C900.011169,783.670044 934.395020,783.670044 969.000000,783.670044 
	C969.000000,710.060242 969.000000,636.780151 969.000000,562.500000 
M858.000610,372.355103 
	C860.333252,385.858093 866.847046,396.932739 876.764954,406.370667 
	C892.964905,421.786743 911.971191,425.669983 933.304321,421.317932 
	C948.694702,418.178253 960.287048,409.321808 969.382019,397.023956 
	C979.375427,383.511230 981.835938,367.830536 979.656311,351.720703 
	C977.609009,336.588715 969.763306,324.354767 957.996704,314.272675 
	C947.330383,305.133301 935.125305,300.693359 921.535461,300.107391 
	C902.358398,299.280426 886.051270,306.045349 873.069458,320.424164 
	C859.873779,335.039856 854.835632,352.034973 858.000610,372.355103 
M713.609985,932.000000 
	C733.219666,932.861755 747.604980,924.473267 756.892761,907.320251 
	C761.009155,899.717957 761.256470,891.398193 761.060974,882.953003 
	C760.810913,872.149536 756.755127,863.020630 749.635437,855.176025 
	C738.978455,843.434204 725.199646,839.416077 710.011414,841.169556 
	C696.144653,842.770508 684.711792,849.438965 677.588928,861.947021 
	C668.590210,877.749268 668.143494,893.846069 677.006165,909.900574 
	C684.730530,923.893250 696.862305,930.945618 713.609985,932.000000 
M861.000854,881.500854 
	C859.473083,879.966492 857.868652,878.500488 856.429688,876.886963 
	C846.027588,865.222656 835.669373,853.519348 825.245239,841.874878 
	C824.779846,841.354980 823.817322,841.064331 823.076172,841.044312 
	C819.807190,840.955994 816.534424,841.006165 813.319946,841.006165 
	C813.319946,870.981873 813.319946,900.370483 813.319946,929.647705 
	C819.709290,929.647705 825.773438,929.647705 832.136414,929.647705 
	C832.136414,913.056824 832.136414,896.816406 832.136414,879.706665 
	C837.649414,885.555176 842.687988,890.692993 847.493164,896.040527 
	C857.939026,907.665283 868.249878,919.411316 878.685181,931.045715 
	C879.234070,931.657593 880.416565,931.924622 881.317932,931.956116 
	C884.427490,932.064880 887.543152,931.998108 890.717590,931.998108 
	C890.717590,902.095337 890.717590,872.706238 890.717590,843.314758 
	C884.369019,843.314758 878.306641,843.314758 871.723145,843.314758 
	C871.723145,859.945496 871.723145,876.266968 871.723145,893.441956 
	C867.871216,889.129944 864.688293,885.566833 861.000854,881.500854 
M948.000000,856.503540 
	C948.000000,880.926636 948.000000,905.349731 948.000000,929.640808 
	C954.721313,929.640808 960.786804,929.640808 967.194214,929.640808 
	C967.194214,913.069885 967.194214,896.856018 967.194214,880.143188 
	C975.651917,889.480164 983.708069,898.348450 991.734619,907.243408 
	C997.473267,913.602844 1003.470520,919.760559 1008.796814,926.450623 
	C1013.239197,932.030457 1018.479248,933.023682 1024.782959,931.525513 
	C1024.782959,901.995728 1024.782959,872.721802 1024.782959,843.250977 
	C1018.503174,843.250977 1012.441772,843.250977 1005.862610,843.250977 
	C1005.862610,859.507507 1005.862610,875.519104 1005.862610,892.612793 
	C995.300842,881.257385 985.509033,870.760315 975.755676,860.227539 
	C972.168762,856.354004 968.054382,852.786438 965.279358,848.386292 
	C961.057617,841.692017 955.705444,839.495728 948.000000,841.588501 
	C948.000000,846.224548 948.000000,850.864868 948.000000,856.503540 
M1209.421265,903.920227 
	C1203.341919,894.905334 1202.308228,885.325928 1206.007446,875.118713 
	C1209.493042,865.500732 1222.808960,857.379456 1232.828735,861.031555 
	C1238.608032,863.138062 1244.054565,866.157227 1250.097046,868.973511 
	C1253.640137,865.366821 1258.128662,860.797607 1262.628784,856.216553 
	C1246.244019,835.910400 1212.477051,835.968872 1195.212402,854.401917 
	C1185.822632,864.427124 1181.953735,876.626099 1182.976318,890.397705 
	C1184.014526,904.380981 1189.739990,915.770020 1201.213501,924.014343 
	C1210.052246,930.365479 1220.034668,932.303162 1230.815186,932.105652 
	C1242.359009,931.894165 1251.822632,927.415161 1260.431763,920.170959 
	C1263.855225,917.290283 1263.314209,915.202759 1260.232056,912.684631 
	C1256.533569,909.663269 1252.988525,906.453918 1249.373169,903.322571 
	C1236.354980,917.785950 1219.081787,914.311096 1209.421265,903.920227 
M567.042480,878.932922 
	C567.340942,878.356628 567.802307,877.809998 567.913513,877.199585 
	C569.727539,867.240601 584.997009,856.739624 596.296326,861.073547 
	C601.753540,863.166687 606.847351,866.207153 611.288818,868.413025 
	C615.449951,864.352966 620.049744,859.864868 624.653564,855.372864 
	C607.871460,836.710693 578.191528,836.855042 561.608887,850.918762 
	C539.875549,869.350952 540.708557,902.167725 558.292603,919.835266 
	C574.630615,936.250916 609.248108,937.561218 625.462891,917.000427 
	C620.964478,912.310425 616.512695,907.669067 612.091064,903.059143 
	C610.252563,904.673157 608.586731,906.372009 606.692566,907.759033 
	C596.605164,915.145508 583.880615,914.900513 574.600159,906.083801 
	C566.949402,898.815308 564.802795,889.915161 567.042480,878.932922 
M1134.000000,924.397156 
	C1134.000000,920.313049 1134.000000,916.228882 1134.000000,911.865723 
	C1123.001831,911.865723 1112.724487,911.865723 1102.247070,911.865723 
	C1102.247070,906.175354 1102.247070,900.781616 1102.247070,894.915771 
	C1109.885376,894.915771 1117.288818,894.915771 1124.688965,894.915771 
	C1124.688965,888.376770 1124.688965,882.314758 1124.688965,875.789062 
	C1116.981812,875.789062 1109.576416,875.789062 1102.375122,875.789062 
	C1102.375122,870.577942 1102.375122,865.845154 1102.375122,860.839111 
	C1112.692871,860.839111 1122.636841,860.839111 1132.739258,860.839111 
	C1132.739258,854.813965 1132.739258,849.086853 1132.739258,843.288696 
	C1115.752686,843.288696 1099.028198,843.288696 1082.311768,843.288696 
	C1082.311768,872.299683 1082.311768,901.020874 1082.311768,929.837280 
	C1099.563110,929.837280 1116.502197,929.837280 1133.766479,929.837280 
	C1133.849243,928.253418 1133.924561,926.810425 1134.000000,924.397156 
M1332.000000,865.641357 
	C1332.000000,887.041321 1332.000000,908.441223 1332.000000,929.612549 
	C1339.118164,929.612549 1345.514893,929.612549 1352.171631,929.612549 
	C1352.171631,906.626587 1352.171631,884.027283 1352.171631,860.962158 
	C1360.505615,860.962158 1368.572998,860.962158 1376.716797,860.962158 
	C1376.716797,854.763184 1376.716797,849.037903 1376.716797,843.297791 
	C1353.049805,843.297791 1329.667480,843.297791 1306.327515,843.297791 
	C1306.327515,849.327881 1306.327515,855.056030 1306.327515,861.000488 
	C1313.963379,861.000488 1321.277466,861.148132 1328.580811,860.929688 
	C1331.606445,860.839172 1332.384521,862.033691 1332.000000,865.641357 
z"/>
<path fill="#FF914D" opacity="1.000000" stroke="none" 
	d="
M1013.000000,426.000000 
	C1013.000000,378.202606 1013.000000,330.905212 1013.000000,283.304199 
	C1047.343506,283.304199 1081.398682,283.304199 1115.941162,283.304199 
	C1115.941162,384.698120 1115.941162,486.044800 1115.941162,587.391479 
	C1116.364990,587.664062 1116.788696,587.936584 1117.212524,588.209106 
	C1118.294434,586.818848 1119.242432,585.294922 1120.477905,584.057922 
	C1152.506836,551.991028 1184.546509,519.934631 1216.681274,487.974060 
	C1218.145508,486.517700 1220.511230,485.130768 1222.462158,485.123566 
	C1265.618774,484.963623 1308.776001,485.002441 1351.933228,485.012207 
	C1352.397949,485.012299 1352.862793,485.128754 1354.191284,485.306396 
	C1307.002563,532.950684 1260.230103,580.174500 1212.962891,627.898010 
	C1264.572998,679.503845 1316.310913,731.237366 1368.554443,783.476624 
	C1366.897217,783.708801 1365.859497,783.980835 1364.821533,783.981384 
	C1322.497437,784.002869 1280.173340,784.035461 1237.849731,783.888733 
	C1235.855591,783.881836 1233.386475,782.736511 1231.946899,781.307190 
	C1204.750977,754.305664 1177.605957,727.252075 1150.611572,700.049072 
	C1139.267700,688.617371 1128.296753,676.815491 1116.306885,664.295044 
	C1116.306885,704.759888 1116.306885,744.049683 1116.306885,783.668640 
	C1081.711426,783.668640 1047.656006,783.668640 1013.000000,783.668640 
	C1013.000000,664.634827 1013.000000,545.567383 1013.000000,426.000000 
M1148.603149,635.164795 
	C1149.821289,639.764648 1151.039429,644.364502 1152.291626,649.093079 
	C1153.567749,631.282593 1158.652222,629.271667 1170.487427,627.770752 
	C1167.184448,626.283569 1160.725220,625.155579 1157.265747,621.321167 
	C1153.742920,617.416626 1153.172485,610.848389 1151.608032,606.312500 
	C1148.753784,623.276733 1147.145630,625.120300 1131.997192,627.581787 
	C1138.267456,628.433533 1144.300049,629.043335 1148.603149,635.164795 
z"/>
<path fill="#FF914D" opacity="1.000000" stroke="none" 
	d="
M719.255798,690.237671 
	C716.143005,694.801270 713.287537,699.100281 710.135803,703.845459 
	C755.163330,703.845459 799.722839,703.845459 844.640747,703.845459 
	C844.640747,730.569031 844.640747,756.962280 844.640747,783.678528 
	C741.999084,783.678528 639.252625,783.678528 535.116028,783.678528 
	C584.375549,710.362000 633.267639,637.592285 682.644470,564.101196 
	C641.339600,564.101196 600.952454,564.101196 560.283813,564.101196 
	C560.283813,537.611267 560.283813,511.552063 560.283813,485.246033 
	C659.010803,485.246033 757.615967,485.246033 856.950500,485.246033 
	C853.185486,491.094635 849.659363,496.797394 845.912598,502.351379 
	C832.999634,521.493286 819.948242,540.541992 807.065552,559.704224 
	C793.292236,580.191345 779.695129,600.796936 765.938049,621.295227 
	C752.349731,641.542053 738.659424,661.720459 725.009277,681.925842 
	C723.190857,684.617554 721.345886,687.291199 719.255798,690.237671 
M690.561768,616.496521 
	C693.081116,606.934387 701.335510,606.915100 707.636841,606.225952 
	C703.679993,604.820679 697.844116,604.292236 694.505798,601.128479 
	C691.162170,597.959717 690.312622,592.159302 688.771240,588.472351 
	C686.765930,601.516663 685.636169,602.699890 670.841248,606.180603 
	C683.579346,606.090332 688.983887,612.938171 689.414062,624.819031 
	C689.702454,622.299438 689.990906,619.779907 690.561768,616.496521 
z"/>
<path fill="#19E0DE" opacity="1.000000" stroke="none" 
	d="
M969.000000,563.000000 
	C969.000000,636.780151 969.000000,710.060242 969.000000,783.670044 
	C934.395020,783.670044 900.011169,783.670044 865.313110,783.670044 
	C865.313110,684.382507 865.313110,585.021423 865.313110,485.330017 
	C899.604858,485.330017 933.988708,485.330017 969.000000,485.330017 
	C969.000000,511.001617 969.000000,536.750793 969.000000,563.000000 
M914.001587,522.065857 
	C921.473816,525.257324 921.836060,532.107178 922.490479,540.013977 
	C923.672791,524.955872 926.778503,521.821777 939.442322,519.976257 
	C936.492188,518.783386 930.875977,517.967468 927.578064,514.764465 
	C924.362915,511.642059 923.518433,506.078644 922.521729,503.703888 
	C921.608948,506.027557 920.860962,511.287598 917.897705,514.511169 
	C915.053162,517.605408 909.912476,518.588867 906.700928,520.074341 
	C908.151611,520.455444 910.703613,521.125793 914.001587,522.065857 
z"/>
<path fill="#00FEFB" opacity="1.000000" stroke="none" 
	d="
M384.726135,773.638672 
	C377.784729,779.620544 370.931061,785.708191 363.879425,791.557129 
	C355.346100,798.635010 346.609589,805.467224 338.025635,812.484863 
	C326.647705,821.786560 315.438110,831.297119 303.960785,840.473633 
	C292.146271,849.919617 280.087219,859.059448 268.152618,868.355530 
	C243.461029,887.588257 218.561584,906.618774 191.578583,922.500244 
	C176.586716,931.323975 160.300964,938.063721 142.655441,939.919495 
	C131.874664,941.053162 120.925842,942.488220 110.190697,941.757568 
	C88.481712,940.279968 68.613159,932.799438 51.103588,919.598022 
	C37.206059,909.119873 27.230066,895.595642 20.331173,879.713013 
	C20.080673,879.136353 20.101152,878.442017 20.275047,877.272339 
	C34.073357,871.477539 47.591984,866.212830 61.110603,860.948059 
	C69.824722,874.184692 80.228714,885.676270 95.949562,890.311951 
	C107.018791,893.575806 118.434319,893.685303 130.018768,892.161072 
	C141.969849,890.588501 153.767181,888.519470 164.699539,883.548279 
	C177.776260,877.601990 190.457291,870.781494 203.277496,864.276184 
	C219.142868,856.225708 234.949585,848.059570 250.827164,840.033447 
	C281.432709,824.562256 312.082642,809.178955 342.688782,793.708862 
	C356.220459,786.869263 369.690216,779.907166 383.753418,773.143799 
	C384.454529,773.404175 384.590332,773.521423 384.726135,773.638672 
z"/>
<path fill="#19E0DE" opacity="1.000000" stroke="none" 
	d="
M857.999756,371.910645 
	C854.835632,352.034973 859.873779,335.039856 873.069458,320.424164 
	C886.051270,306.045349 902.358398,299.280426 921.535461,300.107391 
	C935.125305,300.693359 947.330383,305.133301 957.996704,314.272675 
	C969.763306,324.354767 977.609009,336.588715 979.656311,351.720703 
	C981.835938,367.830536 979.375427,383.511230 969.382019,397.023956 
	C960.287048,409.321808 948.694702,418.178253 933.304321,421.317932 
	C911.971191,425.669983 892.964905,421.786743 876.764954,406.370667 
	C866.847046,396.932739 860.333252,385.858093 857.999756,371.910645 
z"/>
<path fill="#00FEFB" opacity="1.000000" stroke="none" 
	d="
M448.165833,797.992798 
	C444.730957,789.499268 441.821808,780.744446 437.755432,772.564819 
	C428.319519,753.584290 418.218292,734.935974 408.581055,716.053772 
	C393.639648,686.779114 378.866272,657.418579 364.009338,628.100769 
	C356.284180,612.856384 348.490082,597.646667 340.815582,582.376831 
	C338.077179,576.928284 335.599518,571.348755 333.144989,565.255188 
	C333.404388,564.545593 333.521698,564.409851 333.638977,564.274109 
	C341.803589,574.060852 350.045380,583.784546 358.110596,593.652588 
	C365.847687,603.119202 373.398224,612.738342 381.037170,622.285339 
	C389.397156,632.733459 397.776886,643.165771 406.125000,653.623413 
	C413.958801,663.436829 422.094391,673.030945 429.510071,683.151794 
	C444.846771,704.083191 460.152618,725.054993 474.793549,746.473328 
	C487.977905,765.760925 497.069427,786.917358 500.011902,810.373901 
	C500.294952,812.630310 500.651978,814.877441 500.534363,817.547241 
	C489.624756,813.759155 479.191315,809.460449 468.673401,805.379395 
	C461.901672,802.751831 455.005951,800.443970 448.165833,797.992798 
z"/>
<path fill="#19E0DE" opacity="1.000000" stroke="none" 
	d="
M713.134766,932.000000 
	C696.862305,930.945618 684.730530,923.893250 677.006165,909.900574 
	C668.143494,893.846069 668.590210,877.749268 677.588928,861.947021 
	C684.711792,849.438965 696.144653,842.770508 710.011414,841.169556 
	C725.199646,839.416077 738.978455,843.434204 749.635437,855.176025 
	C756.755127,863.020630 760.810913,872.149536 761.060974,882.953003 
	C761.256470,891.398193 761.009155,899.717957 756.892761,907.320251 
	C747.604980,924.473267 733.219666,932.861755 713.134766,932.000000 
M700.567810,865.955688 
	C691.552185,874.915344 689.204224,887.660645 694.683594,899.174744 
	C701.010620,912.470154 717.109680,917.351074 729.621216,908.627563 
	C736.867249,903.575195 740.218811,895.952332 740.350769,887.094910 
	C740.492432,877.586670 736.413025,867.860474 727.073608,862.991272 
	C717.843689,858.179199 709.314026,859.990112 700.567810,865.955688 
z"/>
<path fill="#19E0DE" opacity="1.000000" stroke="none" 
	d="
M861.253052,881.752258 
	C864.688293,885.566833 867.871216,889.129944 871.723145,893.441956 
	C871.723145,876.266968 871.723145,859.945496 871.723145,843.314758 
	C878.306641,843.314758 884.369019,843.314758 890.717590,843.314758 
	C890.717590,872.706238 890.717590,902.095337 890.717590,931.998108 
	C887.543152,931.998108 884.427490,932.064880 881.317932,931.956116 
	C880.416565,931.924622 879.234070,931.657593 878.685181,931.045715 
	C868.249878,919.411316 857.939026,907.665283 847.493164,896.040527 
	C842.687988,890.692993 837.649414,885.555176 832.136414,879.706665 
	C832.136414,896.816406 832.136414,913.056824 832.136414,929.647705 
	C825.773438,929.647705 819.709290,929.647705 813.319946,929.647705 
	C813.319946,900.370483 813.319946,870.981873 813.319946,841.006165 
	C816.534424,841.006165 819.807190,840.955994 823.076172,841.044312 
	C823.817322,841.064331 824.779846,841.354980 825.245239,841.874878 
	C835.669373,853.519348 846.027588,865.222656 856.429688,876.886963 
	C857.868652,878.500488 859.473083,879.966492 861.253052,881.752258 
z"/>
<path fill="#19E0DE" opacity="1.000000" stroke="none" 
	d="
M948.000000,856.004395 
	C948.000000,850.864868 948.000000,846.224548 948.000000,841.588501 
	C955.705444,839.495728 961.057617,841.692017 965.279358,848.386292 
	C968.054382,852.786438 972.168762,856.354004 975.755676,860.227539 
	C985.509033,870.760315 995.300842,881.257385 1005.862610,892.612793 
	C1005.862610,875.519104 1005.862610,859.507507 1005.862610,843.250977 
	C1012.441772,843.250977 1018.503174,843.250977 1024.782959,843.250977 
	C1024.782959,872.721802 1024.782959,901.995728 1024.782959,931.525513 
	C1018.479248,933.023682 1013.239197,932.030457 1008.796814,926.450623 
	C1003.470520,919.760559 997.473267,913.602844 991.734619,907.243408 
	C983.708069,898.348450 975.651917,889.480164 967.194214,880.143188 
	C967.194214,896.856018 967.194214,913.069885 967.194214,929.640808 
	C960.786804,929.640808 954.721313,929.640808 948.000000,929.640808 
	C948.000000,905.349731 948.000000,880.926636 948.000000,856.004395 
z"/>
<path fill="#19E0DE" opacity="1.000000" stroke="none" 
	d="
M1209.688721,904.176575 
	C1219.081787,914.311096 1236.354980,917.785950 1249.373169,903.322571 
	C1252.988525,906.453918 1256.533569,909.663269 1260.232056,912.684631 
	C1263.314209,915.202759 1263.855225,917.290283 1260.431763,920.170959 
	C1251.822632,927.415161 1242.359009,931.894165 1230.815186,932.105652 
	C1220.034668,932.303162 1210.052246,930.365479 1201.213501,924.014343 
	C1189.739990,915.770020 1184.014526,904.380981 1182.976318,890.397705 
	C1181.953735,876.626099 1185.822632,864.427124 1195.212402,854.401917 
	C1212.477051,835.968872 1246.244019,835.910400 1262.628784,856.216553 
	C1258.128662,860.797607 1253.640137,865.366821 1250.097046,868.973511 
	C1244.054565,866.157227 1238.608032,863.138062 1232.828735,861.031555 
	C1222.808960,857.379456 1209.493042,865.500732 1206.007446,875.118713 
	C1202.308228,885.325928 1203.341919,894.905334 1209.688721,904.176575 
z"/>
<path fill="#19E0DE" opacity="1.000000" stroke="none" 
	d="
M567.023682,879.356567 
	C564.802795,889.915161 566.949402,898.815308 574.600159,906.083801 
	C583.880615,914.900513 596.605164,915.145508 606.692566,907.759033 
	C608.586731,906.372009 610.252563,904.673157 612.091064,903.059143 
	C616.512695,907.669067 620.964478,912.310425 625.462891,917.000427 
	C609.248108,937.561218 574.630615,936.250916 558.292603,919.835266 
	C540.708557,902.167725 539.875549,869.350952 561.608887,850.918762 
	C578.191528,836.855042 607.871460,836.710693 624.653564,855.372864 
	C620.049744,859.864868 615.449951,864.352966 611.288818,868.413025 
	C606.847351,866.207153 601.753540,863.166687 596.296326,861.073547 
	C584.997009,856.739624 569.727539,867.240601 567.913513,877.199585 
	C567.802307,877.809998 567.340942,878.356628 567.023682,879.356567 
z"/>
<path fill="#EB9A5B" opacity="1.000000" stroke="none" 
	d="
M481.111359,667.045471 
	C478.926727,676.013794 476.750000,684.984009 474.549927,693.948547 
	C474.175812,695.472900 473.701752,696.972717 472.929352,699.700623 
	C469.639923,695.932922 466.933594,692.833069 464.102600,688.947632 
	C463.985291,620.118286 463.974579,552.074524 464.042877,484.030762 
	C464.047180,479.742340 464.667664,475.454529 465.001465,471.166412 
	C470.275421,476.880371 475.549408,482.594330 480.692627,488.949646 
	C480.374573,491.058044 480.024384,492.524963 480.023651,493.992065 
	C479.995850,549.944153 479.990173,605.896301 480.046844,661.848328 
	C480.048615,663.581055 480.740967,665.313110 481.111359,667.045471 
z"/>
<path fill="#19E0DE" opacity="1.000000" stroke="none" 
	d="
M1134.000000,924.882324 
	C1133.924561,926.810425 1133.849243,928.253418 1133.766479,929.837280 
	C1116.502197,929.837280 1099.563110,929.837280 1082.311768,929.837280 
	C1082.311768,901.020874 1082.311768,872.299683 1082.311768,843.288696 
	C1099.028198,843.288696 1115.752686,843.288696 1132.739258,843.288696 
	C1132.739258,849.086853 1132.739258,854.813965 1132.739258,860.839111 
	C1122.636841,860.839111 1112.692871,860.839111 1102.375122,860.839111 
	C1102.375122,865.845154 1102.375122,870.577942 1102.375122,875.789062 
	C1109.576416,875.789062 1116.981812,875.789062 1124.688965,875.789062 
	C1124.688965,882.314758 1124.688965,888.376770 1124.688965,894.915771 
	C1117.288818,894.915771 1109.885376,894.915771 1102.247070,894.915771 
	C1102.247070,900.781616 1102.247070,906.175354 1102.247070,911.865723 
	C1112.724487,911.865723 1123.001831,911.865723 1134.000000,911.865723 
	C1134.000000,916.228882 1134.000000,920.313049 1134.000000,924.882324 
z"/>
<path fill="#E19E62" opacity="1.000000" stroke="none" 
	d="
M464.687805,471.017181 
	C464.667664,475.454529 464.047180,479.742340 464.042877,484.030762 
	C463.974579,552.074524 463.985291,620.118286 463.967102,688.637939 
	C457.290771,681.657898 451.175781,673.593079 443.799713,666.922791 
	C436.887360,660.671814 438.792419,654.828796 440.638702,647.262817 
	C446.365021,623.796326 451.086426,600.080627 455.987823,576.418213 
	C459.016357,561.797607 459.869171,547.151672 453.984650,532.932800 
	C452.388062,529.075012 450.172943,525.473145 448.114014,520.999084 
	C448.324188,515.115906 448.903931,509.989838 448.954071,504.858612 
	C449.097198,490.200317 449.025116,475.539948 449.037659,460.880371 
	C454.149811,464.209564 459.261963,467.538757 464.687805,471.017181 
z"/>
<path fill="#2CEBDD" opacity="1.000000" stroke="none" 
	d="
M61.956848,676.117188 
	C56.970905,669.351868 51.984970,662.586609 47.145081,655.074951 
	C47.527260,652.532654 47.968578,650.736755 47.969746,648.940613 
	C48.006130,593.028870 48.010906,537.117126 47.955532,481.205414 
	C47.953449,479.099121 47.304050,476.993439 46.956299,474.887482 
	C51.403931,471.666779 55.851559,468.446106 60.648582,465.653992 
	C60.998863,486.014648 60.938103,505.947174 61.093185,525.877991 
	C61.109207,527.937256 62.410900,529.986450 63.116032,532.040344 
	C62.076374,540.589539 60.144939,549.148987 60.243324,557.685059 
	C60.345409,566.541870 62.418457,575.375305 63.614227,584.221008 
	C63.788845,585.512756 63.878551,586.815979 63.787567,588.853577 
	C63.379128,591.556396 63.029625,593.519287 63.026646,595.482727 
	C62.989315,620.090454 63.029472,644.698364 62.956600,669.305969 
	C62.949871,671.577332 62.305267,673.846802 61.956848,676.117188 
z"/>
<path fill="#19E0DE" opacity="1.000000" stroke="none" 
	d="
M1332.000000,865.158325 
	C1332.384521,862.033691 1331.606445,860.839172 1328.580811,860.929688 
	C1321.277466,861.148132 1313.963379,861.000488 1306.327515,861.000488 
	C1306.327515,855.056030 1306.327515,849.327881 1306.327515,843.297791 
	C1329.667480,843.297791 1353.049805,843.297791 1376.716797,843.297791 
	C1376.716797,849.037903 1376.716797,854.763184 1376.716797,860.962158 
	C1368.572998,860.962158 1360.505615,860.962158 1352.171631,860.962158 
	C1352.171631,884.027283 1352.171631,906.626587 1352.171631,929.612549 
	C1345.514893,929.612549 1339.118164,929.612549 1332.000000,929.612549 
	C1332.000000,908.441223 1332.000000,887.041321 1332.000000,865.158325 
z"/>
<path fill="#1DF1E7" opacity="1.000000" stroke="none" 
	d="
M46.646652,475.022522 
	C47.304050,476.993439 47.953449,479.099121 47.955532,481.205414 
	C48.010906,537.117126 48.006130,593.028870 47.969746,648.940613 
	C47.968578,650.736755 47.527260,652.532654 47.122021,654.718506 
	C42.618999,648.629456 38.271175,642.159790 33.961086,635.665039 
	C32.906940,634.076538 31.976269,632.406128 31.213573,630.090942 
	C31.625231,628.108276 31.974594,626.808167 31.975475,625.507874 
	C32.004112,583.222168 32.011097,540.936523 31.952509,498.650909 
	C31.950340,497.084717 31.259586,495.519501 30.889732,493.953827 
	C36.038826,487.688416 41.187916,481.423004 46.646652,475.022522 
z"/>
<path fill="#F69553" opacity="1.000000" stroke="none" 
	d="
M481.447754,666.843872 
	C480.740967,665.313110 480.048615,663.581055 480.046844,661.848328 
	C479.990173,605.896301 479.995850,549.944153 480.023651,493.992065 
	C480.024384,492.524963 480.374573,491.058044 480.834290,489.270660 
	C488.854431,498.556702 493.285797,509.811646 496.685516,521.449036 
	C500.698456,535.185608 502.704681,549.486328 501.699493,563.610291 
	C500.549438,579.770020 497.615112,595.872681 494.452911,611.801025 
	C490.801208,630.194885 486.055054,648.371399 481.447754,666.843872 
z"/>
<path fill="#0CF9F3" opacity="1.000000" stroke="none" 
	d="
M30.571213,494.093353 
	C31.259586,495.519501 31.950340,497.084717 31.952509,498.650909 
	C32.011097,540.936523 32.004112,583.222168 31.975475,625.507874 
	C31.974594,626.808167 31.625231,628.108276 31.166191,629.729004 
	C21.878082,614.426758 15.371458,597.881653 13.039353,579.909424 
	C12.051063,572.293152 11.063627,564.597473 11.099030,556.942627 
	C11.204241,534.192810 17.742788,513.265564 30.571213,494.093353 
z"/>
<path fill="#CAA871" opacity="1.000000" stroke="none" 
	d="
M282.954224,878.888062 
	C286.097870,874.837646 289.739471,874.413940 294.705566,875.867249 
	C306.510529,879.321960 318.539368,882.010864 330.472076,885.031494 
	C331.405609,885.267761 332.295349,885.677063 333.696350,886.411133 
	C335.687836,887.792419 337.079681,889.029907 338.705017,889.705994 
	C369.096039,902.347046 399.523254,914.900940 429.902832,927.569214 
	C431.450928,928.214844 432.638458,929.725159 433.993835,930.832886 
	C427.609619,932.548035 421.225403,934.263184 414.349182,935.567749 
	C412.713501,934.317688 411.682373,933.208374 410.409943,932.677917 
	C375.165588,917.987915 339.880341,903.395996 304.645203,888.684082 
	C297.327271,885.628540 290.180084,882.164001 282.954224,878.888062 
z"/>
<path fill="#EB9A5B" opacity="1.000000" stroke="none" 
	d="
M394.047394,938.108948 
	C388.756561,938.056580 383.437439,938.330933 378.181396,937.876404 
	C370.048798,937.172974 361.959320,935.971619 353.326050,934.582520 
	C351.610474,933.339050 350.525909,932.244629 349.213257,931.690186 
	C340.509033,928.013672 331.736725,924.498718 323.022583,920.845215 
	C303.299530,912.576050 283.597382,904.257141 263.886719,895.958435 
	C267.018097,893.044434 270.149506,890.130493 273.917786,887.237610 
	C310.480438,902.155273 346.420837,917.016602 382.311432,931.997375 
	C386.367157,933.690186 390.142212,936.055481 394.047394,938.108948 
z"/>
<path fill="#D9A167" opacity="1.000000" stroke="none" 
	d="
M394.506744,938.063721 
	C390.142212,936.055481 386.367157,933.690186 382.311432,931.997375 
	C346.420837,917.016602 310.480438,902.155273 274.224915,887.103699 
	C276.708893,884.354309 279.522614,881.759888 282.645264,879.026733 
	C290.180084,882.164001 297.327271,885.628540 304.645203,888.684082 
	C339.880341,903.395996 375.165588,917.987915 410.409943,932.677917 
	C411.682373,933.208374 412.713501,934.317688 413.931000,935.495850 
	C407.658630,936.562561 401.312347,937.290527 394.506744,938.063721 
z"/>
<path fill="#3EE3D0" opacity="1.000000" stroke="none" 
	d="
M61.977165,676.470337 
	C62.305267,673.846802 62.949871,671.577332 62.956600,669.305969 
	C63.029472,644.698364 62.989315,620.090454 63.026646,595.482727 
	C63.029625,593.519287 63.379128,591.556396 63.841507,589.274414 
	C67.080597,596.655212 69.854141,604.436340 73.082817,612.023804 
	C75.021202,616.579102 77.669891,620.832214 79.782623,625.906982 
	C79.377762,628.549500 79.030319,630.505737 79.026192,632.462708 
	C78.985359,651.851196 79.057289,671.240356 78.909218,690.627808 
	C78.895378,692.439636 77.592194,694.241516 76.887642,696.048035 
	C71.924248,689.639893 66.960861,683.231689 61.977165,676.470337 
z"/>
<path fill="#4CDDC7" opacity="1.000000" stroke="none" 
	d="
M76.938408,696.402161 
	C77.592194,694.241516 78.895378,692.439636 78.909218,690.627808 
	C79.057289,671.240356 78.985359,651.851196 79.026192,632.462708 
	C79.030319,630.505737 79.377762,628.549500 79.839439,626.273682 
	C85.407784,636.042969 90.702568,646.131409 95.780167,656.906250 
	C95.375175,659.387634 95.029076,661.182251 95.024345,662.977783 
	C94.981880,679.087769 95.040230,695.198242 94.952934,711.307861 
	C94.940636,713.577393 94.303009,715.843506 93.954834,718.111206 
	C88.299614,710.992920 82.644386,703.874573 76.938408,696.402161 
z"/>
<path fill="#FF914D" opacity="1.000000" stroke="none" 
	d="
M263.577332,896.094360 
	C283.597382,904.257141 303.299530,912.576050 323.022583,920.845215 
	C331.736725,924.498718 340.509033,928.013672 349.213257,931.690186 
	C350.525909,932.244629 351.610474,933.339050 352.894409,934.507935 
	C341.764709,932.448853 330.484222,930.303467 319.329956,927.631042 
	C298.257141,922.582275 277.254181,917.241150 256.229919,911.990662 
	C253.599472,911.333740 251.015625,910.490234 247.718323,909.532043 
	C253.122513,904.909119 258.195251,900.569702 263.577332,896.094360 
z"/>
<path fill="#AAB688" opacity="1.000000" stroke="none" 
	d="
M168.040192,454.881317 
	C175.236938,456.325592 182.433685,457.769867 189.824432,460.024414 
	C190.011215,473.153198 190.052536,485.472137 189.950027,497.789886 
	C189.932480,499.899353 189.301224,502.003723 188.953491,504.110443 
	C182.240509,502.732941 175.527512,501.355438 168.406769,499.447998 
	C168.012756,484.239166 168.026474,469.560242 168.040192,454.881317 
z"/>
<path fill="#5CD7BC" opacity="1.000000" stroke="none" 
	d="
M93.978027,718.463989 
	C94.303009,715.843506 94.940636,713.577393 94.952934,711.307861 
	C95.040230,695.198242 94.981880,679.087769 95.024345,662.977783 
	C95.029076,661.182251 95.375175,659.387634 95.836128,657.272949 
	C101.405464,667.042297 106.701637,677.131287 111.780594,687.906433 
	C111.375679,690.380310 111.032097,692.167358 111.025352,693.955750 
	C110.977936,706.526733 111.069321,719.098694 110.939095,731.668518 
	C110.914093,734.081848 110.105392,736.487061 109.658241,738.896057 
	C104.439240,732.203003 99.220230,725.509888 93.978027,718.463989 
z"/>
<path fill="#D6A369" opacity="1.000000" stroke="none" 
	d="
M448.873260,460.567139 
	C449.025116,475.539948 449.097198,490.200317 448.954071,504.858612 
	C448.903931,509.989838 448.324188,515.115906 447.971497,520.678955 
	C442.381927,515.654358 436.807159,510.195007 431.171814,504.005585 
	C431.407440,500.992401 431.947632,498.710663 431.960114,496.426025 
	C432.038818,482.006653 432.000488,467.586670 432.000854,453.166870 
	C437.570190,455.529236 443.139526,457.891571 448.873260,460.567139 
z"/>
<path fill="#BDAD7A" opacity="1.000000" stroke="none" 
	d="
M434.367615,930.898071 
	C432.638458,929.725159 431.450928,928.214844 429.902832,927.569214 
	C399.523254,914.900940 369.096039,902.347046 338.705017,889.705994 
	C337.079681,889.029907 335.687836,887.792419 334.090210,886.491760 
	C341.377686,887.641357 348.744965,889.210205 356.151855,890.562073 
	C363.129547,891.835693 370.148956,892.880554 377.671814,894.420654 
	C379.382202,895.659546 380.464111,896.757812 381.775909,897.308472 
	C394.447998,902.628052 407.188263,907.785767 419.848572,913.132935 
	C428.983551,916.991211 438.026825,921.066528 447.111023,925.045166 
	C442.987793,927.017883 438.864594,928.990601 434.367615,930.898071 
z"/>
<path fill="#93BF97" opacity="1.000000" stroke="none" 
	d="
M167.820862,454.539612 
	C168.026474,469.560242 168.012756,484.239166 167.998718,499.376068 
	C160.797409,498.490601 153.596405,497.147125 146.253830,495.040588 
	C146.407730,491.996643 146.941986,489.717468 146.958557,487.434509 
	C147.043869,475.679230 146.996353,463.923004 146.995209,452.167084 
	C153.863983,452.844025 160.732773,453.520996 167.820862,454.539612 
z"/>
<path fill="#BDAD7A" opacity="1.000000" stroke="none" 
	d="
M189.157501,504.444702 
	C189.301224,502.003723 189.932480,499.899353 189.950027,497.789886 
	C190.052536,485.472137 190.011215,473.153198 190.029144,460.358368 
	C196.427277,461.261566 202.814728,462.641022 209.603333,464.551514 
	C210.004837,479.999512 210.005188,494.916504 210.005539,509.833496 
	C203.124207,508.148651 196.242874,506.463806 189.157501,504.444702 
z"/>
<path fill="#4CDDC7" opacity="1.000000" stroke="none" 
	d="
M75.001633,458.164368 
	C80.730453,456.451447 86.459282,454.738556 92.595154,453.553406 
	C93.018402,469.090698 93.034599,484.100220 93.050797,499.109741 
	C87.591225,503.355499 82.131645,507.601257 76.282959,511.561096 
	C75.597786,508.991241 75.056694,506.708557 75.045242,504.423218 
	C74.968010,489.003906 75.002983,473.584045 75.001633,458.164368 
z"/>
<path fill="#D6A369" opacity="1.000000" stroke="none" 
	d="
M210.401718,509.903442 
	C210.005188,494.916504 210.004837,479.999512 210.005951,464.624603 
	C216.416763,465.779297 222.826096,467.391907 229.625153,469.544861 
	C230.018112,483.000061 230.021378,495.914917 230.024628,508.829773 
	C226.105453,514.192627 221.140900,513.606506 215.815201,511.419373 
	C214.214752,510.762115 212.474243,510.445862 210.401718,509.903442 
z"/>
<path fill="#16F5EC" opacity="1.000000" stroke="none" 
	d="
M448.087708,798.397949 
	C455.005951,800.443970 461.901672,802.751831 468.673401,805.379395 
	C479.191315,809.460449 489.624756,813.759155 500.464661,817.980469 
	C501.168457,823.525208 501.501556,829.055176 501.072266,834.804199 
	C494.580872,832.869812 488.830994,830.769958 483.127319,828.551270 
	C472.459381,824.401428 461.818207,820.182678 451.165894,815.992554 
	C450.113800,810.262756 449.061676,804.532898 448.087708,798.397949 
z"/>
<path fill="#89C49E" opacity="1.000000" stroke="none" 
	d="
M317.892395,467.951111 
	C323.317078,464.971039 328.741730,461.990967 334.802795,459.300720 
	C335.625763,461.378357 335.967285,463.165649 335.974304,464.954224 
	C336.032104,479.674286 336.027740,494.394531 336.042206,509.114746 
	C330.618958,512.078369 325.195679,515.041992 319.396179,517.585632 
	C319.013275,502.642609 319.046539,488.119293 318.951050,473.596863 
	C318.938660,471.712708 318.261627,469.832947 317.892395,467.951111 
z"/>
<path fill="#39E6D4" opacity="1.000000" stroke="none" 
	d="
M74.642899,458.204224 
	C75.002983,473.584045 74.968010,489.003906 75.045242,504.423218 
	C75.056694,506.708557 75.597786,508.991241 75.971344,511.693542 
	C71.955025,518.641479 67.861214,525.171021 63.441719,531.870483 
	C62.410900,529.986450 61.109207,527.937256 61.093185,525.877991 
	C60.938103,505.947174 60.998863,486.014648 60.996742,465.624573 
	C65.425064,462.859070 69.854614,460.551544 74.642899,458.204224 
z"/>
<path fill="#CAA871" opacity="1.000000" stroke="none" 
	d="
M431.660156,452.997498 
	C432.000488,467.586670 432.038818,482.006653 431.960114,496.426025 
	C431.947632,498.710663 431.407440,500.992401 431.033997,503.694275 
	C425.864105,501.797821 420.771454,499.482635 415.338593,496.542664 
	C414.998413,480.000671 414.998444,464.083435 414.998444,448.166199 
	C420.438782,449.720154 425.879089,451.274109 431.660156,452.997498 
z"/>
<path fill="#AAB688" opacity="1.000000" stroke="none" 
	d="
M447.468201,925.017822 
	C438.026825,921.066528 428.983551,916.991211 419.848572,913.132935 
	C407.188263,907.785767 394.447998,902.628052 381.775909,897.308472 
	C380.464111,896.757812 379.382202,895.659546 378.098022,894.491089 
	C383.898438,894.444641 389.798340,894.990112 395.689117,894.904907 
	C399.536621,894.849243 403.370880,893.878601 407.702759,893.566650 
	C409.383301,894.659912 410.467957,895.748291 411.778381,896.308228 
	C418.935944,899.366699 426.186249,902.208923 433.333618,905.290222 
	C442.275177,909.145020 451.147858,913.159668 460.050232,917.105347 
	C455.975281,919.733704 451.900330,922.362122 447.468201,925.017822 
z"/>
<path fill="#7DC8A5" opacity="1.000000" stroke="none" 
	d="
M146.581329,452.083862 
	C146.996353,463.923004 147.043869,475.679230 146.958557,487.434509 
	C146.941986,489.717468 146.407730,491.996643 146.035553,494.696533 
	C140.250610,494.404022 134.542374,493.692474 128.415909,492.448914 
	C127.996872,478.000305 127.996048,464.083740 127.995232,450.167175 
	C134.052643,450.778351 140.110062,451.389496 146.581329,452.083862 
z"/>
<path fill="#7DC8A5" opacity="1.000000" stroke="none" 
	d="
M317.533081,467.980530 
	C318.261627,469.832947 318.938660,471.712708 318.951050,473.596863 
	C319.046539,488.119293 319.013275,502.642609 319.029846,517.641785 
	C314.283661,520.747131 309.527496,523.376282 304.236877,525.669067 
	C303.466248,523.220581 303.036438,521.109680 303.025208,518.996460 
	C302.950745,504.963287 302.965912,490.929626 302.951935,476.896118 
	C307.692535,473.934021 312.433136,470.971954 317.533081,467.980530 
z"/>
<path fill="#93BF97" opacity="1.000000" stroke="none" 
	d="
M336.409912,509.059387 
	C336.027740,494.394531 336.032104,479.674286 335.974304,464.954224 
	C335.967285,463.165649 335.625763,461.378357 335.167664,459.269226 
	C339.969788,456.963776 345.043457,454.979553 350.777374,453.293823 
	C351.624268,455.379852 351.965881,457.166840 351.973053,458.955139 
	C352.030914,473.342163 352.025696,487.729462 352.039764,502.116669 
	C346.952393,504.412445 341.865021,506.708221 336.409912,509.059387 
z"/>
<path fill="#6DCFB1" opacity="1.000000" stroke="none" 
	d="
M436.939636,874.902710 
	C440.048126,870.690674 443.156616,866.478638 446.944824,862.175049 
	C452.535004,864.110718 457.423798,866.192688 462.360718,868.153442 
	C471.596619,871.821472 480.860504,875.419128 490.112762,879.046021 
	C487.303192,884.301392 484.493622,889.556824 481.182434,894.656982 
	C473.616913,891.335999 466.553223,888.169861 459.489136,885.004578 
	C451.972870,881.636780 444.456146,878.269958 436.939636,874.902710 
z"/>
<path fill="#5CD7BC" opacity="1.000000" stroke="none" 
	d="
M93.389923,498.953918 
	C93.034599,484.100220 93.018402,469.090698 93.001755,453.623108 
	C98.713966,452.119110 104.426636,451.073181 110.568642,450.554962 
	C110.997452,464.999573 110.996925,478.916504 110.996399,492.833435 
	C105.240616,494.821655 99.484833,496.809875 93.389923,498.953918 
z"/>
<path fill="#3EE3D0" opacity="1.000000" stroke="none" 
	d="
M207.890656,548.957947 
	C213.809341,543.991516 219.701859,538.993408 225.659286,534.073792 
	C228.126175,532.036682 230.732117,530.167969 233.857300,528.406494 
	C234.641342,539.431030 234.842896,550.271667 235.044434,561.112305 
	C227.114578,565.149231 219.184723,569.186157 210.647461,573.077637 
	C209.691147,568.273743 209.385757,563.611694 208.978622,558.958435 
	C208.686432,555.618774 208.258194,552.291016 207.890656,548.957947 
z"/>
<path fill="#3EE3D0" opacity="1.000000" stroke="none" 
	d="
M12.164047,846.998840 
	C11.786098,841.309998 11.408149,835.621155 11.488115,829.466675 
	C16.022863,827.640747 20.139469,826.388000 24.168770,824.899048 
	C34.743774,820.991028 45.280758,816.980042 55.832863,813.010010 
	C55.217922,819.048828 54.602985,825.087585 53.537415,831.578674 
	C51.047180,832.690002 48.980396,833.275757 46.972507,834.020386 
	C35.361984,838.325745 23.765358,842.668579 12.164047,846.998840 
z"/>
<path fill="#AAB688" opacity="1.000000" stroke="none" 
	d="
M383.000763,494.833008 
	C377.939545,495.879761 372.878357,496.926514 367.404968,497.445343 
	C366.991730,480.667328 366.990631,464.417206 366.989532,448.167114 
	C372.045258,447.453094 377.101013,446.739105 382.578491,446.553955 
	C383.000427,462.999512 383.000580,478.916260 383.000763,494.833008 
z"/>
<path fill="#B4B180" opacity="1.000000" stroke="none" 
	d="
M383.462830,494.903992 
	C383.000580,478.916260 383.000427,462.999512 383.000458,446.624878 
	C388.025024,446.119293 393.049438,446.071655 398.536163,446.553223 
	C398.998230,462.999420 398.997925,478.916443 398.997650,494.833466 
	C393.973389,494.880646 388.949127,494.927826 383.462830,494.903992 
z"/>
<path fill="#BDAD7A" opacity="1.000000" stroke="none" 
	d="
M399.445099,494.904175 
	C398.997925,478.916443 398.998230,462.999420 398.998077,446.624451 
	C404.052429,446.784485 409.107178,447.402435 414.580200,448.093292 
	C414.998444,464.083435 414.998413,480.000671 414.998230,496.375854 
	C409.962921,496.214172 404.927734,495.594513 399.445099,494.904175 
z"/>
<path fill="#55DAC1" opacity="1.000000" stroke="none" 
	d="
M490.428040,878.876587 
	C480.860504,875.419128 471.596619,871.821472 462.360718,868.153442 
	C457.423798,866.192688 452.535004,864.110718 447.255066,862.020752 
	C448.261993,857.112122 449.638306,852.266235 451.524658,847.127563 
	C453.459290,847.271606 454.922211,847.611755 456.302490,848.160034 
	C469.581787,853.434143 482.847137,858.743347 496.116455,864.042542 
	C494.325378,868.930725 492.534332,873.818970 490.428040,878.876587 
z"/>
<path fill="#55DAC1" opacity="1.000000" stroke="none" 
	d="
M55.909416,812.595947 
	C45.280758,816.980042 34.743774,820.991028 24.168770,824.899048 
	C20.139469,826.388000 16.022863,827.640747 11.557068,829.007935 
	C11.454299,823.630432 11.740497,818.246155 12.483297,812.431274 
	C18.683945,809.974548 24.458706,808.030823 30.165148,805.903809 
	C39.743851,802.333496 49.279087,798.646545 58.832611,795.008667 
	C57.883728,800.733032 56.934845,806.457458 55.909416,812.595947 
z"/>
<path fill="#99BD93" opacity="1.000000" stroke="none" 
	d="
M460.366150,916.964050 
	C451.147858,913.159668 442.275177,909.145020 433.333618,905.290222 
	C426.186249,902.208923 418.935944,899.366699 411.778381,896.308228 
	C410.467957,895.748291 409.383301,894.659912 408.098999,893.491211 
	C413.409088,890.777100 418.814545,888.387146 424.807312,886.216187 
	C431.887543,889.330627 438.374878,892.238708 444.874847,895.118347 
	C453.926178,899.128174 462.986877,903.116821 472.043579,907.114563 
	C468.256409,910.350586 464.469238,913.586670 460.366150,916.964050 
z"/>
<path fill="#89C49E" opacity="1.000000" stroke="none" 
	d="
M472.352448,906.955750 
	C462.986877,903.116821 453.926178,899.128174 444.874847,895.118347 
	C438.374878,892.238708 431.887543,889.330627 425.168884,886.167236 
	C428.736633,882.322388 432.529999,878.745483 436.631500,875.035706 
	C444.456146,878.269958 451.972870,881.636780 459.489136,885.004578 
	C466.553223,888.169861 473.616913,891.335999 480.862732,894.807495 
	C478.250214,899.007874 475.455750,902.902405 472.352448,906.955750 
z"/>
<path fill="#6DCFB1" opacity="1.000000" stroke="none" 
	d="
M109.817673,739.163452 
	C110.105392,736.487061 110.914093,734.081848 110.939095,731.668518 
	C111.069321,719.098694 110.977936,706.526733 111.025352,693.955750 
	C111.032097,692.167358 111.375679,690.380310 111.836441,688.272949 
	C117.360435,698.122925 122.611359,708.292480 127.583931,719.262146 
	C126.871666,722.478577 126.096992,724.890198 126.062714,727.312256 
	C125.912666,737.913757 125.977196,748.518372 125.963875,759.121826 
	C120.634956,752.558167 115.306030,745.994507 109.817673,739.163452 
z"/>
<path fill="#2CEBDD" opacity="1.000000" stroke="none" 
	d="
M451.240265,816.405518 
	C461.818207,820.182678 472.459381,824.401428 483.127319,828.551270 
	C488.830994,830.769958 494.580872,832.869812 500.709900,835.037109 
	C500.731140,839.911377 500.352417,844.771973 499.476074,849.932617 
	C497.261597,849.625916 495.519592,849.081665 493.831757,848.402710 
	C480.270935,842.947205 466.720276,837.466370 453.166534,831.993286 
	C452.549225,826.934998 451.931915,821.876770 451.240265,816.405518 
z"/>
<path fill="#55DAC1" opacity="1.000000" stroke="none" 
	d="
M235.412277,561.061279 
	C234.842896,550.271667 234.641342,539.431030 234.168640,528.268860 
	C240.706009,522.687378 247.514542,517.427490 254.652191,512.499756 
	C254.987946,518.938904 254.868027,525.049255 255.035553,531.151794 
	C255.215775,537.716492 255.665604,544.273743 255.997803,550.834351 
	C249.258591,554.226257 242.519348,557.618225 235.412277,561.061279 
z"/>
<path fill="#99BD93" opacity="1.000000" stroke="none" 
	d="
M366.610168,448.233337 
	C366.990631,464.417206 366.991730,480.667328 366.990997,497.375366 
	C362.269226,499.227203 357.549316,500.621124 352.434570,502.065857 
	C352.025696,487.729462 352.030914,473.342163 351.973053,458.955139 
	C351.965881,457.166840 351.624268,455.379852 351.165771,453.271484 
	C356.006195,451.400360 361.118500,449.849945 366.610168,448.233337 
z"/>
<path fill="#6DCFB1" opacity="1.000000" stroke="none" 
	d="
M111.459091,492.907043 
	C110.996925,478.916504 110.997452,464.999573 110.996765,450.624695 
	C116.413040,450.037048 121.830521,449.907318 127.621620,449.972412 
	C127.996048,464.083740 127.996872,478.000305 127.996811,492.374756 
	C122.637886,492.882019 117.279831,492.931366 111.459091,492.907043 
z"/>
<path fill="#6DCFB1" opacity="1.000000" stroke="none" 
	d="
M302.632019,477.040894 
	C302.965912,490.929626 302.950745,504.963287 303.025208,518.996460 
	C303.036438,521.109680 303.466248,523.220581 303.870728,525.723450 
	C298.949493,528.744141 293.859955,531.373901 288.394043,533.584412 
	C288.011383,519.975220 288.048737,506.785004 287.949524,493.595795 
	C287.935364,491.713684 287.259674,489.836517 286.890137,487.957092 
	C292.030762,484.366608 297.171417,480.776154 302.632019,477.040894 
z"/>
<path fill="#69D1B3" opacity="1.000000" stroke="none" 
	d="
M286.574402,488.093384 
	C287.259674,489.836517 287.935364,491.713684 287.949524,493.595795 
	C288.048737,506.785004 288.011383,519.975220 288.027100,533.641418 
	C282.948944,536.747559 277.861450,539.377380 272.396790,541.586365 
	C272.012939,529.305603 272.054291,517.445312 271.950104,505.586304 
	C271.933563,503.705078 271.261444,501.829620 270.892426,499.951477 
	C276.014526,496.044220 281.136597,492.136963 286.574402,488.093384 
z"/>
<path fill="#5CD7BC" opacity="1.000000" stroke="none" 
	d="
M270.540100,499.980103 
	C271.261444,501.829620 271.933563,503.705078 271.950104,505.586304 
	C272.054291,517.445312 272.012939,529.305603 272.029633,541.641602 
	C266.928253,545.001587 261.816956,547.885376 256.351746,550.801758 
	C255.665604,544.273743 255.215775,537.716492 255.035553,531.151794 
	C254.868027,525.049255 254.987946,518.938904 254.971619,512.355591 
	C260.037201,507.922424 265.112488,503.965576 270.540100,499.980103 
z"/>
<path fill="#EB9A5B" opacity="1.000000" stroke="none" 
	d="
M230.354507,508.799561 
	C230.021378,495.914917 230.018112,483.000061 230.018738,469.627502 
	C241.223328,471.952057 252.424042,474.734344 264.970642,477.850952 
	C252.937607,488.702026 241.810989,498.735718 230.354507,508.799561 
z"/>
<path fill="#2CEBDD" opacity="1.000000" stroke="none" 
	d="
M207.538361,548.985962 
	C208.258194,552.291016 208.686432,555.618774 208.978622,558.958435 
	C209.385757,563.611694 209.691147,568.273743 210.366516,573.293213 
	C200.049881,579.107239 189.406799,584.560120 178.389923,589.590759 
	C177.641037,584.097778 177.265961,579.027039 176.890900,573.956299 
	C183.914627,567.974365 190.898346,561.944519 197.981247,556.033508 
	C200.940918,553.563538 204.111420,551.346191 207.538361,548.985962 
z"/>
<path fill="#3EE3D0" opacity="1.000000" stroke="none" 
	d="
M453.089600,832.416748 
	C466.720276,837.466370 480.270935,842.947205 493.831757,848.402710 
	C495.519592,849.081665 497.261597,849.625916 499.406006,850.330811 
	C498.818176,854.833923 497.802887,859.238708 496.452026,863.843018 
	C482.847137,858.743347 469.581787,853.434143 456.302490,848.160034 
	C454.922211,847.611755 453.459290,847.271606 451.600830,846.760376 
	C451.782196,842.070679 452.397400,837.455444 453.089600,832.416748 
z"/>
<path fill="#AAB688" opacity="1.000000" stroke="none" 
	d="
M72.108719,724.953003 
	C75.433167,726.734314 75.506264,729.267883 74.066132,732.395020 
	C73.207123,734.260315 72.793106,736.330505 71.650330,738.720703 
	C69.266212,739.823547 67.403130,740.494446 65.556656,741.208313 
	C51.091568,746.799927 36.629696,752.399780 22.166832,757.997131 
	C23.381344,752.899658 24.595858,747.802124 26.377586,742.348450 
	C29.326645,741.313538 31.780153,740.819153 34.078465,739.925537 
	C46.776104,734.988403 59.435917,729.953979 72.108719,724.953003 
z"/>
<path fill="#BDAD7A" opacity="1.000000" stroke="none" 
	d="
M71.969597,724.643066 
	C59.435917,729.953979 46.776104,734.988403 34.078465,739.925537 
	C31.780153,740.819153 29.326645,741.313538 26.555897,741.995972 
	C27.518999,735.784424 28.871000,729.569031 30.950466,723.148315 
	C41.395985,719.289612 51.114040,715.636353 60.832092,711.983032 
	C64.498215,716.099731 68.164352,720.216492 71.969597,724.643066 
z"/>
<path fill="#2CEBDD" opacity="1.000000" stroke="none" 
	d="
M12.095058,847.413086 
	C23.765358,842.668579 35.361984,838.325745 46.972507,834.020386 
	C48.980396,833.275757 51.047180,832.690002 53.461811,832.013672 
	C54.548965,836.722412 55.261089,841.448486 55.548756,846.650513 
	C50.026573,849.107056 44.953857,851.155212 39.825390,853.052673 
	C31.624146,856.087158 23.385900,859.021729 15.163310,861.998596 
	C14.117566,857.274841 13.071819,852.551086 12.095058,847.413086 
z"/>
<path fill="#16F5EC" opacity="1.000000" stroke="none" 
	d="
M15.094810,862.400513 
	C23.385900,859.021729 31.624146,856.087158 39.825390,853.052673 
	C44.953857,851.155212 50.026573,849.107056 55.480885,847.061523 
	C57.562733,851.398804 59.287998,855.801147 61.061935,860.575745 
	C47.591984,866.212830 34.073357,871.477539 20.217228,876.891724 
	C18.261923,872.294922 16.644115,867.548645 15.094810,862.400513 
z"/>
<path fill="#69D1B3" opacity="1.000000" stroke="none" 
	d="
M58.916634,794.610107 
	C49.279087,798.646545 39.743851,802.333496 30.165148,805.903809 
	C24.458706,808.030823 18.683945,809.974548 12.553858,812.006836 
	C12.708937,807.586914 13.250060,803.160706 14.348408,798.348022 
	C19.247347,796.316345 23.594656,794.685913 27.929695,793.023438 
	C39.234188,788.688232 50.533333,784.339050 61.834629,779.995483 
	C60.889980,784.734192 59.945316,789.472900 58.916634,794.610107 
z"/>
<path fill="#99BD93" opacity="1.000000" stroke="none" 
	d="
M22.086201,758.390503 
	C36.629696,752.399780 51.091568,746.799927 65.556656,741.208313 
	C67.403130,740.494446 69.266212,739.823547 71.477371,739.066650 
	C70.881599,743.399536 69.930077,747.798462 68.520897,752.602478 
	C63.396950,754.661926 58.710621,756.262207 54.068306,757.981323 
	C42.423882,762.293396 30.799417,766.659241 19.166950,771.003540 
	C20.113161,766.930359 21.059364,762.857117 22.086201,758.390503 
z"/>
<path fill="#89C49E" opacity="1.000000" stroke="none" 
	d="
M19.085911,771.400879 
	C30.799417,766.659241 42.423882,762.293396 54.068306,757.981323 
	C58.710621,756.262207 63.396950,754.661926 68.448280,753.004211 
	C67.619942,757.431641 66.406563,761.862427 64.624817,766.648315 
	C62.140106,767.472229 60.140900,767.730225 58.321426,768.445435 
	C49.399853,771.952148 40.578342,775.718445 31.615141,779.112122 
	C26.571787,781.021729 21.322491,782.387451 16.165974,783.998230 
	C17.112276,779.931580 18.058578,775.864990 19.085911,771.400879 
z"/>
<path fill="#7DC8A5" opacity="1.000000" stroke="none" 
	d="
M16.095417,784.414429 
	C21.322491,782.387451 26.571787,781.021729 31.615141,779.112122 
	C40.578342,775.718445 49.399853,771.952148 58.321426,768.445435 
	C60.140900,767.730225 62.140106,767.472229 64.445557,766.998779 
	C63.955349,771.093140 63.076046,775.192200 62.015678,779.643372 
	C50.533333,784.339050 39.234188,788.688232 27.929695,793.023438 
	C23.594656,794.685913 19.247347,796.316345 14.535452,797.978149 
	C14.785132,793.606750 15.404995,789.218628 16.095417,784.414429 
z"/>
<path fill="#7DC8A5" opacity="1.000000" stroke="none" 
	d="
M126.095718,759.430481 
	C125.977196,748.518372 125.912666,737.913757 126.062714,727.312256 
	C126.096992,724.890198 126.871666,722.478577 127.552788,719.626831 
	C132.866440,729.200684 137.932892,739.209900 142.780258,749.905640 
	C142.373917,754.363403 142.222610,758.136902 141.990585,761.905396 
	C141.678375,766.976074 141.303940,772.042969 140.956207,777.111450 
	C136.046661,771.320679 131.137115,765.529907 126.095718,759.430481 
z"/>
<path fill="#B4B180" opacity="1.000000" stroke="none" 
	d="
M271.985901,718.834595 
	C269.230011,720.210449 266.474121,721.586365 263.355591,722.439819 
	C262.992035,699.667175 262.991119,677.416992 262.990234,655.166748 
	C265.910309,656.525635 268.830353,657.884460 271.880829,660.037231 
	C272.002777,680.165649 271.994324,699.500061 271.985901,718.834595 
z"/>
<path fill="#99BD93" opacity="1.000000" stroke="none" 
	d="
M262.636536,654.984375 
	C262.991119,677.416992 262.992035,699.667175 262.991577,722.375366 
	C260.584686,723.547119 258.179199,724.261047 255.386215,724.446106 
	C254.999161,702.489746 254.972000,681.062134 255.047729,659.634888 
	C255.054428,657.736877 255.731888,655.841187 256.097809,653.944458 
	C258.159485,654.230286 260.221191,654.516174 262.636536,654.984375 
z"/>
<path fill="#7DC8A5" opacity="1.000000" stroke="none" 
	d="
M255.882935,653.597900 
	C255.731888,655.841187 255.054428,657.736877 255.047729,659.634888 
	C254.972000,681.062134 254.999161,702.489746 254.997986,724.375244 
	C252.954178,724.882019 250.911102,724.930908 248.435455,724.449280 
	C247.987930,700.574158 247.972977,677.229431 247.958038,653.884766 
	C250.528046,653.673645 253.098053,653.462524 255.882935,653.597900 
z"/>
<path fill="#D9A167" opacity="1.000000" stroke="none" 
	d="
M60.802433,711.652100 
	C51.114040,715.636353 41.395985,719.289612 31.286720,722.946533 
	C33.467999,712.579590 36.047066,702.210632 38.603317,691.835999 
	C38.873596,690.739075 39.009827,689.609070 39.344166,687.730957 
	C46.687126,695.814636 53.729946,703.567871 60.802433,711.652100 
z"/>
<path fill="#16F5EC" opacity="1.000000" stroke="none" 
	d="
M176.540375,573.985413 
	C177.265961,579.027039 177.641037,584.097778 178.026581,589.642700 
	C161.212418,598.711182 144.387772,607.305542 127.563126,615.899841 
	C127.260323,615.536194 126.957520,615.172485 126.654716,614.808777 
	C143.166443,601.210693 159.678162,587.612610 176.540375,573.985413 
z"/>
<path fill="#39E6D4" opacity="1.000000" stroke="none" 
	d="
M235.984985,720.831665 
	C233.388519,719.128479 230.792053,717.425232 228.081635,714.933228 
	C227.960175,697.066956 227.952667,679.989441 227.945160,662.911926 
	C230.396133,661.020325 232.847092,659.128723 235.644958,657.660645 
	C235.989578,678.999939 235.987289,699.915833 235.984985,720.831665 
z"/>
<path fill="#55DAC1" opacity="1.000000" stroke="none" 
	d="
M236.310623,720.985291 
	C235.987289,699.915833 235.989578,678.999939 235.988403,657.626221 
	C238.052551,656.442566 240.120178,655.716797 242.582062,655.417114 
	C242.979416,678.506042 242.982513,701.168884 242.985611,723.831726 
	C240.869156,722.934143 238.752701,722.036499 236.310623,720.985291 
z"/>
<path fill="#16F5EC" opacity="1.000000" stroke="none" 
	d="
M227.635895,663.047363 
	C227.952667,679.989441 227.960175,697.066956 227.957306,714.617920 
	C220.621262,709.752991 217.009338,702.164551 216.086594,693.511108 
	C214.828522,681.713257 218.116043,671.265930 227.635895,663.047363 
z"/>
<path fill="#89C49E" opacity="1.000000" stroke="none" 
	d="
M141.091370,777.425842 
	C141.303940,772.042969 141.678375,766.976074 141.990585,761.905396 
	C142.222610,758.136902 142.373917,754.363403 142.833786,750.271973 
	C148.351578,760.119690 153.596756,770.287537 158.581909,781.316650 
	C157.865982,787.154602 157.410095,792.131287 156.954224,797.108032 
	C151.711670,790.652100 146.469101,784.196167 141.091370,777.425842 
z"/>
<path fill="#69D1B3" opacity="1.000000" stroke="none" 
	d="
M243.357361,723.911255 
	C242.982513,701.168884 242.979416,678.506042 242.965576,655.368286 
	C244.366013,654.591125 245.777206,654.288818 247.573212,653.935669 
	C247.972977,677.229431 247.987930,700.574158 248.002869,724.376831 
	C246.578278,724.553467 245.153702,724.272095 243.357361,723.911255 
z"/>
<path fill="#D6A369" opacity="1.000000" stroke="none" 
	d="
M272.318176,718.814575 
	C271.994324,699.500061 272.002777,680.165649 272.023926,660.354553 
	C274.286377,661.676758 276.536102,663.475586 278.836945,665.999390 
	C278.593658,673.299561 278.023254,679.877014 278.073486,686.449585 
	C278.138885,695.005981 278.696960,703.558533 279.042999,712.112732 
	C276.912170,714.340027 274.781311,716.567322 272.318176,718.814575 
z"/>
<path fill="#EB9A5B" opacity="1.000000" stroke="none" 
	d="
M279.362244,711.964233 
	C278.696960,703.558533 278.138885,695.005981 278.073486,686.449585 
	C278.023254,679.877014 278.593658,673.299561 278.965515,666.305786 
	C289.476288,677.622131 290.609955,694.943298 282.210358,708.249268 
	C281.433533,709.479858 280.527527,710.628784 279.362244,711.964233 
z"/>
<path fill="#99BD93" opacity="1.000000" stroke="none" 
	d="
M157.087921,797.417236 
	C157.410095,792.131287 157.865982,787.154602 158.523071,781.677856 
	C161.988495,787.126282 165.375397,793.011353 168.486145,799.038879 
	C172.439209,806.698486 176.168396,814.473633 179.850204,822.754517 
	C179.591125,823.444702 179.475937,823.579407 179.360748,823.714172 
	C172.912750,816.173279 166.462814,808.634094 160.018875,801.089783 
	C159.071869,799.981079 158.153336,798.848083 157.087921,797.417236 
z"/>
<path fill="#00FEFB" opacity="1.000000" stroke="none" 
	d="
M333.103394,564.878052 
	C332.690918,564.507812 332.462097,563.940979 332.233307,563.374084 
	C332.572815,563.526550 332.912292,563.679077 333.445374,564.052856 
	C333.521698,564.409851 333.404388,564.545593 333.103394,564.878052 
z"/>
<path fill="#99BD93" opacity="1.000000" stroke="none" 
	d="
M179.892761,823.120605 
	C180.328323,823.432434 180.577423,823.933716 180.826538,824.435059 
	C180.461487,824.338501 180.096420,824.241943 179.546051,823.929810 
	C179.475937,823.579407 179.591125,823.444702 179.892761,823.120605 
z"/>
<path fill="#00FEFB" opacity="1.000000" stroke="none" 
	d="
M384.122009,773.103271 
	C384.492126,772.690796 385.058960,772.461975 385.625793,772.233154 
	C385.473419,772.572693 385.321014,772.912170 384.947388,773.445190 
	C384.590332,773.521423 384.454529,773.404175 384.122009,773.103271 
z"/>
<path fill="#E6DACE" opacity="1.000000" stroke="none" 
	d="
M1148.383545,634.850525 
	C1144.300049,629.043335 1138.267456,628.433533 1131.997192,627.581787 
	C1147.145630,625.120300 1148.753784,623.276733 1151.608032,606.312500 
	C1153.172485,610.848389 1153.742920,617.416626 1157.265747,621.321167 
	C1160.725220,625.155579 1167.184448,626.283569 1170.487427,627.770752 
	C1158.652222,629.271667 1153.567749,631.282593 1152.291626,649.093079 
	C1151.039429,644.364502 1149.821289,639.764648 1148.383545,634.850525 
z"/>
<path fill="#E6DACE" opacity="1.000000" stroke="none" 
	d="
M690.420532,616.878418 
	C689.990906,619.779907 689.702454,622.299438 689.414062,624.819031 
	C688.983887,612.938171 683.579346,606.090332 670.841248,606.180603 
	C685.636169,602.699890 686.765930,601.516663 688.771240,588.472351 
	C690.312622,592.159302 691.162170,597.959717 694.505798,601.128479 
	C697.844116,604.292236 703.679993,604.820679 707.636841,606.225952 
	C701.335510,606.915100 693.081116,606.934387 690.420532,616.878418 
z"/>
<path fill="#E6DACE" opacity="1.000000" stroke="none" 
	d="
M913.628540,521.931030 
	C910.703613,521.125793 908.151611,520.455444 906.700928,520.074341 
	C909.912476,518.588867 915.053162,517.605408 917.897705,514.511169 
	C920.860962,511.287598 921.608948,506.027557 922.521729,503.703888 
	C923.518433,506.078644 924.362915,511.642059 927.578064,514.764465 
	C930.875977,517.967468 936.492188,518.783386 939.442322,519.976257 
	C926.778503,521.821777 923.672791,524.955872 922.490479,540.013977 
	C921.836060,532.107178 921.473816,525.257324 913.628540,521.931030 
z"/>
<path fill="#000000" opacity="1.000000" stroke="none" 
	d="
M700.825073,865.687195 
	C709.314026,859.990112 717.843689,858.179199 727.073608,862.991272 
	C736.413025,867.860474 740.492432,877.586670 740.350769,887.094910 
	C740.218811,895.952332 736.867249,903.575195 729.621216,908.627563 
	C717.109680,917.351074 701.010620,912.470154 694.683594,899.174744 
	C689.204224,887.660645 691.552185,874.915344 700.825073,865.687195 
z"/>
</svg>